<svg xmlns="http://www.w3.org/2000/svg" width="512" height="512" viewBox="0 0 512 512" role="img" aria-labelledby="icon-title icon-desc">
  <title id="icon-title">Ícono de FOMO</title>
  <desc id="icon-desc">Globo de conversación azul con una línea de mercado blanca y una flecha naranja.</desc>
  <path d="M105 64H407C447 64 470 87 470 127V337C470 377 447 400 407 400H280L168 486V400H105C65 400 42 377 42 337V127C42 87 65 64 105 64Z" fill="#006BB6"/>
  <path d="M105 315L190 229L269 273L350 149" fill="none" stroke="#FFFFFF" stroke-width="31" stroke-linecap="round" stroke-linejoin="round"/>
  <circle cx="105" cy="315" r="17" fill="#FFFFFF"/>
  <circle cx="190" cy="229" r="17" fill="#FFFFFF"/>
  <circle cx="269" cy="273" r="17" fill="#FFFFFF"/>
  <circle cx="350" cy="149" r="20" fill="#F58426" stroke="#FFFFFF" stroke-width="9"/>
  <path d="M357 142L420 89" fill="none" stroke="#F58426" stroke-width="27" stroke-linecap="round"/>
  <path d="M383 88H421V126" fill="none" stroke="#F58426" stroke-width="24" stroke-linecap="round" stroke-linejoin="round"/>
</svg>