<svg xmlns="http://www.w3.org/2000/svg" width="1400" height="420" viewBox="0 0 1400 420" role="img" aria-labelledby="fomo-title fomo-desc">
  <title id="fomo-title">FOMO — Finanzas, Observación, Mercado y Opinión</title>
  <desc id="fomo-desc">Logo azul y naranja de FOMO. Un globo de conversación contiene una línea de mercado ascendente. La marca comunica información de mercado sin recomendaciones de inversión.</desc>

  <g id="icono-fomo" aria-hidden="true">
    <path d="M84 38H280C319 38 340 59 340 98V233C340 272 319 293 280 293H188L111 353V293H84C45 293 24 272 24 233V98C24 59 45 38 84 38Z" fill="#006BB6"/>
    <path d="M72 230L132 171L187 202L245 121" fill="none" stroke="#FFFFFF" stroke-width="20" stroke-linecap="round" stroke-linejoin="round"/>
    <circle cx="72" cy="230" r="11" fill="#FFFFFF"/>
    <circle cx="132" cy="171" r="11" fill="#FFFFFF"/>
    <circle cx="187" cy="202" r="11" fill="#FFFFFF"/>
    <circle cx="245" cy="121" r="13" fill="#F58426" stroke="#FFFFFF" stroke-width="6"/>
    <path d="M250 116L289 82" fill="none" stroke="#F58426" stroke-width="17" stroke-linecap="round"/>
    <path d="M266 81H290V105" fill="none" stroke="#F58426" stroke-width="15" stroke-linecap="round" stroke-linejoin="round"/>
  </g>
  <g id="logotipo-fomo">
<path d="M410.625 206.0H446.921875V160.1796875H499.03125V131.609375H446.921875V101.421875H504.78125V72.1328125H410.625Z" fill="#006BB6" aria-hidden="true"/>
<path d="M576.7890625 207.796875C613.17578125 207.796875 641.8359375 183.80859375 641.8359375 139.15625C641.8359375 94.4140625 613.17578125 70.3359375 576.7890625 70.3359375C540.22265625 70.3359375 511.7421875 94.4140625 511.7421875 139.15625C511.7421875 183.5390625 540.22265625 207.796875 576.7890625 207.796875ZM576.7890625 176.171875C558.8203125 176.171875 549.1171875 163.14453125 549.1171875 139.15625C549.1171875 115.078125 558.8203125 101.9609375 576.7890625 101.9609375C594.84765625 101.9609375 604.4609375 115.078125 604.4609375 139.15625C604.4609375 163.14453125 594.84765625 176.171875 576.7890625 176.171875Z" fill="#006BB6" aria-hidden="true"/>
<path d="M652.75 206.0H689.40625V154.25C689.40625 144.3671875 688.5078125 122.17578125 688.1484375 103.12890625C692.55078125 122.8046875 698.03125 143.73828125 701.265625 154.25L717.078125 206.0H747.265625L762.80859375 154.25C766.1328125 143.37890625 771.79296875 121.27734375 776.10546875 100.8828125C775.74609375 120.37890625 774.7578125 144.0078125 774.7578125 154.25V206.0H811.4140625V72.1328125H754.00390625L742.14453125 114.0C739.359375 123.79296875 735.31640625 144.3671875 732.171875 161.88671875C729.1171875 144.3671875 724.89453125 123.79296875 722.109375 114.0L710.0703125 72.1328125H652.75Z" fill="#006BB6" aria-hidden="true"/>
<path d="M893.375 207.796875C929.76171875 207.796875 958.421875 183.80859375 958.421875 139.15625C958.421875 94.4140625 929.76171875 70.3359375 893.375 70.3359375C856.80859375 70.3359375 828.328125 94.4140625 828.328125 139.15625C828.328125 183.5390625 856.80859375 207.796875 893.375 207.796875ZM893.375 176.171875C875.40625 176.171875 865.703125 163.14453125 865.703125 139.15625C865.703125 115.078125 875.40625 101.9609375 893.375 101.9609375C911.43359375 101.9609375 921.046875 115.078125 921.046875 139.15625C921.046875 163.14453125 911.43359375 176.171875 893.375 176.171875Z" fill="#F58426" aria-hidden="true"/>
    <rect x="402.0" y="232" width="562.7" height="9" rx="4.5" fill="#F58426"/>
<path d="M404.197265625 294.0H408.1083984375V285.26953125H417.1904296875V282.017578125H408.1083984375V275.4697265625H418.171875V272.173828125H404.197265625Z" fill="#17243A" aria-hidden="true"/>
<path d="M426.9951171875 272.173828125H423.083984375V294.0H426.9951171875Z" fill="#17243A" aria-hidden="true"/>
<path d="M432.6396484375 294.0H436.6240234375V283.16015625C436.6240234375 281.9443359375 436.4921875 279.64453125 436.345703125 276.94921875C437.810546875 279.791015625 438.630859375 281.34375 439.7734375 283.1748046875L446.5849609375 294.0H451.0234375V272.173828125H447.0537109375V283.62890625C447.0537109375 284.9619140625 447.1416015625 287.173828125 447.2880859375 289.283203125C446.3359375 287.1005859375 445.3837890625 285.4453125 444.607421875 284.2001953125L437.0634765625 272.173828125H432.6396484375Z" fill="#17243A" aria-hidden="true"/>
<path d="M455.203125 294.0H459.48046875L461.267578125 288.5947265625H469.4267578125L471.287109375 294.0H475.5791015625L467.7861328125 272.173828125H462.8203125ZM462.3076171875 285.4453125 463.23046875 282.662109375C463.8310546875 280.7138671875 464.490234375 278.267578125 465.2666015625 275.220703125C466.072265625 278.23828125 466.7607421875 280.6552734375 467.4052734375 282.662109375L468.357421875 285.4453125Z" fill="#17243A" aria-hidden="true"/>
<path d="M479.744140625 294.0H483.728515625V283.16015625C483.728515625 281.9443359375 483.5966796875 279.64453125 483.4501953125 276.94921875C484.9150390625 279.791015625 485.7353515625 281.34375 486.8779296875 283.1748046875L493.689453125 294.0H498.1279296875V272.173828125H494.158203125V283.62890625C494.158203125 284.9619140625 494.24609375 287.173828125 494.392578125 289.283203125C493.4404296875 287.1005859375 492.48828125 285.4453125 491.7119140625 284.2001953125L484.16796875 272.173828125H479.744140625Z" fill="#17243A" aria-hidden="true"/>
<path d="M503.3330078125 294.0H519.4609375V290.7041015625H512.2978515625C510.8330078125 290.7041015625 509.3681640625 290.7041015625 507.9033203125 290.77734375C508.7822265625 289.72265625 509.646484375 288.6533203125 510.3935546875 287.583984375L519.3876953125 274.634765625V272.173828125H503.2744140625V275.4697265625H510.5693359375C511.990234375 275.4697265625 513.4111328125 275.4697265625 514.8173828125 275.396484375C513.9970703125 276.392578125 513.19140625 277.388671875 512.48828125 278.384765625L503.3330078125 291.568359375Z" fill="#17243A" aria-hidden="true"/>
<path d="M523.1279296875 294.0H527.4052734375L529.1923828125 288.5947265625H537.3515625L539.2119140625 294.0H543.50390625L535.7109375 272.173828125H530.7451171875ZM530.232421875 285.4453125 531.1552734375 282.662109375C531.755859375 280.7138671875 532.4150390625 278.267578125 533.19140625 275.220703125C533.9970703125 278.23828125 534.685546875 280.6552734375 535.330078125 282.662109375L536.2822265625 285.4453125Z" fill="#17243A" aria-hidden="true"/>
<path d="M555.330078125 294.3369140625C560.544921875 294.3369140625 563.591796875 291.71484375 563.591796875 287.876953125C563.591796875 284.068359375 560.4130859375 282.3837890625 557.17578125 281.607421875L555.1396484375 281.080078125C553.3671875 280.640625 551.4189453125 279.908203125 551.4189453125 278.0771484375C551.4189453125 276.421875 552.9130859375 275.2060546875 555.3740234375 275.2060546875C557.732421875 275.2060546875 559.314453125 276.2900390625 559.5048828125 278.150390625H563.298828125C563.1962890625 274.5029296875 560.0908203125 271.880859375 555.4326171875 271.880859375C550.8623046875 271.880859375 547.4638671875 274.458984375 547.4638671875 278.3115234375C547.4638671875 281.3876953125 549.6171875 283.2333984375 553.2646484375 284.1708984375L555.740234375 284.8154296875C558.0986328125 285.4306640625 559.6806640625 286.1484375 559.6806640625 287.84765625C559.6806640625 289.72265625 557.87890625 290.9970703125 555.30078125 290.9970703125C552.83984375 290.9970703125 550.8916015625 289.8837890625 550.7158203125 287.583984375H546.86328125C547.0390625 291.890625 550.2470703125 294.3369140625 555.330078125 294.3369140625Z" fill="#17243A" aria-hidden="true"/>
<path d="M579.8173828125 285.9873046875C581.1357421875 285.9873046875 582.17578125 284.9619140625 582.17578125 283.6435546875C582.17578125 282.3251953125 581.1357421875 281.314453125 579.8173828125 281.314453125C578.4990234375 281.314453125 577.4736328125 282.3251953125 577.4736328125 283.6435546875C577.4736328125 284.9619140625 578.4990234375 285.9873046875 579.8173828125 285.9873046875Z" fill="#17243A" aria-hidden="true"/>
<path d="M606.208984375 294.29296875C611.921875 294.29296875 616.2138671875 290.1474609375 616.2138671875 283.1015625C616.2138671875 276.041015625 611.921875 271.880859375 606.208984375 271.880859375C600.4814453125 271.880859375 596.1748046875 276.041015625 596.1748046875 283.1015625C596.1748046875 290.1328125 600.4814453125 294.29296875 606.208984375 294.29296875ZM606.208984375 290.7919921875C602.634765625 290.7919921875 600.1005859375 288.0673828125 600.1005859375 283.1015625C600.1005859375 278.1064453125 602.634765625 275.3818359375 606.208984375 275.3818359375C609.75390625 275.3818359375 612.2734375 278.091796875 612.2734375 283.1015625C612.2734375 288.08203125 609.75390625 290.7919921875 606.208984375 290.7919921875Z" fill="#17243A" aria-hidden="true"/>
<path d="M621.169921875 294.0H629.9736328125C634.96875 294.0 637.4150390625 291.451171875 637.4150390625 288.052734375C637.4150390625 284.7568359375 635.0712890625 282.8232421875 632.7568359375 282.7060546875V282.486328125C634.880859375 281.98828125 636.5654296875 280.494140625 636.5654296875 277.8427734375C636.5654296875 274.60546875 634.236328125 272.173828125 629.51953125 272.173828125H621.169921875ZM625.0810546875 290.7333984375V284.302734375H629.490234375C631.921875 284.302734375 633.4453125 285.8115234375 633.4453125 287.759765625C633.4453125 289.48828125 632.244140625 290.7333984375 629.3583984375 290.7333984375ZM625.0810546875 281.4755859375V275.42578125H629.109375C631.453125 275.42578125 632.654296875 276.65625 632.654296875 278.3408203125C632.654296875 280.2744140625 631.0869140625 281.4755859375 629.021484375 281.4755859375Z" fill="#17243A" aria-hidden="true"/>
<path d="M649.8564453125 294.3369140625C655.0712890625 294.3369140625 658.1181640625 291.71484375 658.1181640625 287.876953125C658.1181640625 284.068359375 654.939453125 282.3837890625 651.7021484375 281.607421875L649.666015625 281.080078125C647.8935546875 280.640625 645.9453125 279.908203125 645.9453125 278.0771484375C645.9453125 276.421875 647.439453125 275.2060546875 649.900390625 275.2060546875C652.2587890625 275.2060546875 653.8408203125 276.2900390625 654.03125 278.150390625H657.8251953125C657.72265625 274.5029296875 654.6171875 271.880859375 649.958984375 271.880859375C645.388671875 271.880859375 641.990234375 274.458984375 641.990234375 278.3115234375C641.990234375 281.3876953125 644.1435546875 283.2333984375 647.791015625 284.1708984375L650.2666015625 284.8154296875C652.625 285.4306640625 654.20703125 286.1484375 654.20703125 287.84765625C654.20703125 289.72265625 652.4052734375 290.9970703125 649.8271484375 290.9970703125C647.3662109375 290.9970703125 645.41796875 289.8837890625 645.2421875 287.583984375H641.3896484375C641.5654296875 291.890625 644.7734375 294.3369140625 649.8564453125 294.3369140625Z" fill="#17243A" aria-hidden="true"/>
<path d="M662.95703125 294.0H677.1953125V290.7041015625H666.8681640625V284.6103515625H676.375V281.3583984375H666.8681640625V275.4697265625H677.13671875V272.173828125H662.95703125Z" fill="#17243A" aria-hidden="true"/>
<path d="M682.37109375 294.0H686.2822265625V285.9873046875H690.3544921875L694.646484375 294.0H699.0263671875L694.294921875 285.328125C696.873046875 284.302734375 698.220703125 282.1201171875 698.220703125 279.1611328125C698.220703125 275.0009765625 695.5546875 272.173828125 690.5302734375 272.173828125H682.37109375ZM686.2822265625 282.75V275.455078125H689.9296875C692.9033203125 275.455078125 694.2216796875 276.83203125 694.2216796875 279.1611328125C694.2216796875 281.4755859375 692.9033203125 282.75 689.958984375 282.75Z" fill="#17243A" aria-hidden="true"/>
<path d="M709.5048828125 294.0H714.4560546875L722.1025390625 272.173828125H717.8251953125L714.0751953125 283.51171875C713.4599609375 285.4599609375 712.80078125 287.84765625 712.009765625 290.8798828125C711.2041015625 287.876953125 710.5009765625 285.4453125 709.8857421875 283.51171875L706.0185546875 272.173828125H701.7265625Z" fill="#17243A" aria-hidden="true"/>
<path d="M724.802734375 294.0H729.080078125L730.8671875 288.5947265625H739.0263671875L740.88671875 294.0H745.1787109375L737.3857421875 272.173828125H732.419921875ZM731.9072265625 285.4453125 732.830078125 282.662109375C733.4306640625 280.7138671875 734.08984375 278.267578125 734.8662109375 275.220703125C735.671875 278.23828125 736.3603515625 280.6552734375 737.0048828125 282.662109375L737.95703125 285.4453125Z" fill="#17243A" aria-hidden="true"/>
<path d="M758.6455078125 294.29296875C763.8017578125 294.29296875 767.2587890625 290.9091796875 767.859375 286.734375H763.904296875C763.40625 289.3125 761.296875 290.7919921875 758.689453125 290.7919921875C755.14453125 290.7919921875 752.5810546875 288.111328125 752.5810546875 283.1015625C752.5810546875 278.150390625 755.1298828125 275.3818359375 758.7041015625 275.3818359375C761.3115234375 275.3818359375 763.4208984375 276.861328125 763.904296875 279.439453125H767.8447265625C767.15625 274.6640625 763.435546875 271.880859375 758.6455078125 271.880859375C752.947265625 271.880859375 748.6552734375 276.041015625 748.6552734375 283.1015625C748.6552734375 290.1328125 752.9033203125 294.29296875 758.6455078125 294.29296875Z" fill="#17243A" aria-hidden="true"/>
<path d="M776.609375 272.173828125H772.6982421875V294.0H776.609375Z" fill="#17243A" aria-hidden="true"/>
<path d="M791.599609375 294.29296875C797.3125 294.29296875 801.6044921875 290.1474609375 801.6044921875 283.1015625C801.6044921875 276.041015625 797.3125 271.880859375 791.599609375 271.880859375C785.8720703125 271.880859375 781.5654296875 276.041015625 781.5654296875 283.1015625C781.5654296875 290.1328125 785.8720703125 294.29296875 791.599609375 294.29296875ZM791.599609375 290.7919921875C788.025390625 290.7919921875 785.4912109375 288.0673828125 785.4912109375 283.1015625C785.4912109375 278.1064453125 788.025390625 275.3818359375 791.599609375 275.3818359375C795.14453125 275.3818359375 797.6640625 278.091796875 797.6640625 283.1015625C797.6640625 288.08203125 795.14453125 290.7919921875 791.599609375 290.7919921875ZM790.1494140625 270.0791015625H792.91796875L795.8916015625 265.5966796875H792.185546875Z" fill="#17243A" aria-hidden="true"/>
<path d="M806.560546875 294.0H810.544921875V283.16015625C810.544921875 281.9443359375 810.4130859375 279.64453125 810.2666015625 276.94921875C811.7314453125 279.791015625 812.5517578125 281.34375 813.6943359375 283.1748046875L820.505859375 294.0H824.9443359375V272.173828125H820.974609375V283.62890625C820.974609375 284.9619140625 821.0625 287.173828125 821.208984375 289.283203125C820.2568359375 287.1005859375 819.3046875 285.4453125 818.5283203125 284.2001953125L810.984375 272.173828125H806.560546875Z" fill="#17243A" aria-hidden="true"/>
<path d="M841.9755859375 285.9873046875C843.2939453125 285.9873046875 844.333984375 284.9619140625 844.333984375 283.6435546875C844.333984375 282.3251953125 843.2939453125 281.314453125 841.9755859375 281.314453125C840.6572265625 281.314453125 839.6318359375 282.3251953125 839.6318359375 283.6435546875C839.6318359375 284.9619140625 840.6572265625 285.9873046875 841.9755859375 285.9873046875Z" fill="#17243A" aria-hidden="true"/>
<path d="M859.021484375 294.0H862.859375V282.984375C862.859375 281.3291015625 862.771484375 278.3115234375 862.712890625 275.8359375C863.5185546875 278.6484375 864.3974609375 281.5634765625 864.91015625 282.984375L868.9970703125 294.0H872.322265625L876.3505859375 282.984375C876.86328125 281.51953125 877.7861328125 278.5166015625 878.533203125 275.71875C878.4892578125 278.3115234375 878.4013671875 281.3583984375 878.4013671875 282.984375V294.0H882.2978515625V272.173828125H876.39453125L872.29296875 283.4384765625C871.8681640625 284.7421875 871.1943359375 287.4375 870.681640625 289.5908203125C870.18359375 287.408203125 869.4951171875 284.7275390625 869.0556640625 283.4384765625L864.91015625 272.173828125H859.021484375Z" fill="#17243A" aria-hidden="true"/>
<path d="M887.9423828125 294.0H902.1806640625V290.7041015625H891.853515625V284.6103515625H901.3603515625V281.3583984375H891.853515625V275.4697265625H902.1220703125V272.173828125H887.9423828125Z" fill="#17243A" aria-hidden="true"/>
<path d="M907.3564453125 294.0H911.267578125V285.9873046875H915.33984375L919.6318359375 294.0H924.01171875L919.2802734375 285.328125C921.8583984375 284.302734375 923.2060546875 282.1201171875 923.2060546875 279.1611328125C923.2060546875 275.0009765625 920.5400390625 272.173828125 915.515625 272.173828125H907.3564453125ZM911.267578125 282.75V275.455078125H914.9150390625C917.888671875 275.455078125 919.20703125 276.83203125 919.20703125 279.1611328125C919.20703125 281.4755859375 917.888671875 282.75 914.9443359375 282.75Z" fill="#17243A" aria-hidden="true"/>
<path d="M937.478515625 294.29296875C942.634765625 294.29296875 946.091796875 290.9091796875 946.6923828125 286.734375H942.7373046875C942.2392578125 289.3125 940.1298828125 290.7919921875 937.5224609375 290.7919921875C933.9775390625 290.7919921875 931.4140625 288.111328125 931.4140625 283.1015625C931.4140625 278.150390625 933.962890625 275.3818359375 937.537109375 275.3818359375C940.14453125 275.3818359375 942.25390625 276.861328125 942.7373046875 279.439453125H946.677734375C945.9892578125 274.6640625 942.2685546875 271.880859375 937.478515625 271.880859375C931.7802734375 271.880859375 927.48828125 276.041015625 927.48828125 283.1015625C927.48828125 290.1328125 931.736328125 294.29296875 937.478515625 294.29296875Z" fill="#17243A" aria-hidden="true"/>
<path d="M950.06640625 294.0H954.34375L956.130859375 288.5947265625H964.2900390625L966.150390625 294.0H970.4423828125L962.6494140625 272.173828125H957.68359375ZM957.1708984375 285.4453125 958.09375 282.662109375C958.6943359375 280.7138671875 959.353515625 278.267578125 960.1298828125 275.220703125C960.935546875 278.23828125 961.6240234375 280.6552734375 962.2685546875 282.662109375L963.220703125 285.4453125Z" fill="#17243A" aria-hidden="true"/>
<path d="M981.990234375 294.0C988.640625 294.0 992.5517578125 289.8837890625 992.5517578125 283.0576171875C992.5517578125 276.275390625 988.640625 272.173828125 982.13671875 272.173828125H974.607421875V294.0ZM978.5185546875 290.6162109375V275.5576171875H981.90234375C986.3701171875 275.5576171875 988.69921875 278.0625 988.69921875 283.0576171875C988.69921875 288.0966796875 986.3701171875 290.6162109375 981.7998046875 290.6162109375Z" fill="#17243A" aria-hidden="true"/>
<path d="M1006.8681640625 294.29296875C1012.5810546875 294.29296875 1016.873046875 290.1474609375 1016.873046875 283.1015625C1016.873046875 276.041015625 1012.5810546875 271.880859375 1006.8681640625 271.880859375C1001.140625 271.880859375 996.833984375 276.041015625 996.833984375 283.1015625C996.833984375 290.1328125 1001.140625 294.29296875 1006.8681640625 294.29296875ZM1006.8681640625 290.7919921875C1003.2939453125 290.7919921875 1000.759765625 288.0673828125 1000.759765625 283.1015625C1000.759765625 278.1064453125 1003.2939453125 275.3818359375 1006.8681640625 275.3818359375C1010.4130859375 275.3818359375 1012.9326171875 278.091796875 1012.9326171875 283.1015625C1012.9326171875 288.08203125 1010.4130859375 290.7919921875 1006.8681640625 290.7919921875Z" fill="#17243A" aria-hidden="true"/>
<path d="M1033.2158203125 285.9873046875C1034.5341796875 285.9873046875 1035.57421875 284.9619140625 1035.57421875 283.6435546875C1035.57421875 282.3251953125 1034.5341796875 281.314453125 1033.2158203125 281.314453125C1031.8974609375 281.314453125 1030.8720703125 282.3251953125 1030.8720703125 283.6435546875C1030.8720703125 284.9619140625 1031.8974609375 285.9873046875 1033.2158203125 285.9873046875Z" fill="#17243A" aria-hidden="true"/>
<path d="M1059.607421875 294.29296875C1065.3203125 294.29296875 1069.6123046875 290.1474609375 1069.6123046875 283.1015625C1069.6123046875 276.041015625 1065.3203125 271.880859375 1059.607421875 271.880859375C1053.8798828125 271.880859375 1049.5732421875 276.041015625 1049.5732421875 283.1015625C1049.5732421875 290.1328125 1053.8798828125 294.29296875 1059.607421875 294.29296875ZM1059.607421875 290.7919921875C1056.033203125 290.7919921875 1053.4990234375 288.0673828125 1053.4990234375 283.1015625C1053.4990234375 278.1064453125 1056.033203125 275.3818359375 1059.607421875 275.3818359375C1063.15234375 275.3818359375 1065.671875 278.091796875 1065.671875 283.1015625C1065.671875 288.08203125 1063.15234375 290.7919921875 1059.607421875 290.7919921875Z" fill="#17243A" aria-hidden="true"/>
<path d="M1074.568359375 294.0H1078.4794921875V286.6171875H1082.6689453125C1087.7080078125 286.6171875 1090.41796875 283.5849609375 1090.41796875 279.3955078125C1090.41796875 275.2353515625 1087.751953125 272.173828125 1082.7275390625 272.173828125H1074.568359375ZM1078.4794921875 283.39453125V275.455078125H1082.126953125C1085.115234375 275.455078125 1086.4189453125 277.06640625 1086.4189453125 279.3955078125C1086.4189453125 281.724609375 1085.115234375 283.39453125 1082.15625 283.39453125Z" fill="#17243A" aria-hidden="true"/>
<path d="M1099.080078125 272.173828125H1095.1689453125V294.0H1099.080078125Z" fill="#17243A" aria-hidden="true"/>
<path d="M1104.724609375 294.0H1108.708984375V283.16015625C1108.708984375 281.9443359375 1108.5771484375 279.64453125 1108.4306640625 276.94921875C1109.8955078125 279.791015625 1110.7158203125 281.34375 1111.8583984375 283.1748046875L1118.669921875 294.0H1123.1083984375V272.173828125H1119.138671875V283.62890625C1119.138671875 284.9619140625 1119.2265625 287.173828125 1119.373046875 289.283203125C1118.4208984375 287.1005859375 1117.46875 285.4453125 1116.6923828125 284.2001953125L1109.1484375 272.173828125H1104.724609375Z" fill="#17243A" aria-hidden="true"/>
<path d="M1132.6640625 272.173828125H1128.7529296875V294.0H1132.6640625Z" fill="#17243A" aria-hidden="true"/>
<path d="M1147.654296875 294.29296875C1153.3671875 294.29296875 1157.6591796875 290.1474609375 1157.6591796875 283.1015625C1157.6591796875 276.041015625 1153.3671875 271.880859375 1147.654296875 271.880859375C1141.9267578125 271.880859375 1137.6201171875 276.041015625 1137.6201171875 283.1015625C1137.6201171875 290.1328125 1141.9267578125 294.29296875 1147.654296875 294.29296875ZM1147.654296875 290.7919921875C1144.080078125 290.7919921875 1141.5458984375 288.0673828125 1141.5458984375 283.1015625C1141.5458984375 278.1064453125 1144.080078125 275.3818359375 1147.654296875 275.3818359375C1151.19921875 275.3818359375 1153.71875 278.091796875 1153.71875 283.1015625C1153.71875 288.08203125 1151.19921875 290.7919921875 1147.654296875 290.7919921875ZM1146.2041015625 270.0791015625H1148.97265625L1151.9462890625 265.5966796875H1148.240234375Z" fill="#17243A" aria-hidden="true"/>
<path d="M1162.615234375 294.0H1166.599609375V283.16015625C1166.599609375 281.9443359375 1166.4677734375 279.64453125 1166.3212890625 276.94921875C1167.7861328125 279.791015625 1168.6064453125 281.34375 1169.7490234375 283.1748046875L1176.560546875 294.0H1180.9990234375V272.173828125H1177.029296875V283.62890625C1177.029296875 284.9619140625 1177.1171875 287.173828125 1177.263671875 289.283203125C1176.3115234375 287.1005859375 1175.359375 285.4453125 1174.5830078125 284.2001953125L1167.0390625 272.173828125H1162.615234375Z" fill="#17243A" aria-hidden="true"/>
<path d="M407.05859375 326.62890625H404.4609375V347.0H407.05859375Z" fill="#657184" aria-hidden="true"/>
<path d="M414.240625 337.83984375C414.240625 335.228515625 415.894921875 333.73828125 418.09609375 333.73828125C420.22890625 333.73828125 421.54140625 335.146484375 421.54140625 337.498046875V347.0H424.00234375V337.29296875C424.00234375 333.423828125 421.92421875 331.5234375 418.834375 331.5234375C416.78359375 331.5234375 415.14296875 332.384765625 414.15859375 334.544921875L414.144921875 331.71484375H411.7796875V347.0H414.240625Z" fill="#657184" aria-hidden="true"/>
<path d="M435.53203125000005 331.71484375H432.00468750000005V330.224609375C432.00468750000005 328.748046875 432.66093750000005 327.955078125 434.17851562500005 327.955078125C434.86210937500005 327.955078125 435.24492187500005 328.10546875 435.50468750000005 328.1875L436.18828125000005 326.08203125C435.81914062500005 325.91796875 435.05351562500005 325.671875 433.89140625000005 325.671875C431.66289062500005 325.671875 429.54375000000005 327.025390625 429.54375000000005 329.677734375V331.71484375H426.53593750000005V333.8203125H429.54375000000005V347.0H432.00468750000005V333.8203125H435.53203125000005Z" fill="#657184" aria-hidden="true"/>
<path d="M445.10664062500007 347.328125C449.27656250000007 347.328125 452.09296875000007 344.169921875 452.09296875000007 339.453125C452.09296875000007 334.66796875 449.27656250000007 331.5234375 445.10664062500007 331.5234375C440.95039062500007 331.5234375 438.14765625000007 334.66796875 438.14765625000007 339.453125C438.14765625000007 344.169921875 440.95039062500007 347.328125 445.10664062500007 347.328125ZM445.10664062500007 345.126953125C442.05781250000007 345.126953125 440.64960937500007 342.4609375 440.64960937500007 339.453125C440.64960937500007 336.404296875 442.05781250000007 333.724609375 445.10664062500007 333.724609375C448.19648437500007 333.724609375 449.60468750000007 336.41796875 449.60468750000007 339.453125C449.60468750000007 342.4609375 448.19648437500007 345.126953125 445.10664062500007 345.126953125Z" fill="#657184" aria-hidden="true"/>
<path d="M455.7750000000001 347.0H458.2359375000001V337.4296875C458.2359375000001 335.365234375 459.8492187500001 333.875 462.0503906250001 333.875C462.7066406250001 333.875 463.3765625000001 333.984375 463.5269531250001 334.01171875V331.537109375C463.2398437500001 331.5234375 462.6382812500001 331.49609375 462.2828125000001 331.49609375C460.4644531250001 331.49609375 458.8785156250001 332.521484375 458.3179687500001 334.06640625H458.1539062500001V331.71484375H455.7750000000001Z" fill="#657184" aria-hidden="true"/>
<path d="M466.4160156250001 347.0H468.8769531250001V337.375C468.8769531250001 334.94140625 470.5039062500001 333.68359375 472.2949218750001 333.68359375C474.0175781250001 333.68359375 475.2890625000001 334.818359375 475.2890625000001 336.513671875V347.0H477.7500000000001V337.01953125C477.7500000000001 335.091796875 479.0078125000001 333.68359375 481.0722656250001 333.68359375C482.7128906250001 333.68359375 484.1621093750001 334.55859375 484.1621093750001 336.759765625V347.0H486.6230468750001V336.69140625C486.6230468750001 333.150390625 484.4628906250001 331.44140625 481.8105468750001 331.44140625C479.5957031250001 331.44140625 477.7226562500001 332.630859375 476.9980468750001 334.55859375C476.4511718750001 332.671875 475.1113281250001 331.44140625 473.1015625000001 331.44140625C471.2968750000001 331.44140625 469.5742187500001 332.453125 468.8222656250001 334.517578125L468.8085937500001 331.71484375H466.4160156250001Z" fill="#657184" aria-hidden="true"/>
<path d="M495.32265625000014 347.35546875C497.90664062500014 347.35546875 499.34218750000014 346.001953125 499.86171875000014 344.921875H500.02578125000014V347.0H502.44570312500014V336.923828125C502.44570312500014 332.15234375 498.76796875000014 331.5234375 496.71718750000014 331.5234375C494.35195312500014 331.5234375 491.72695312500014 332.37109375 490.55117187500014 335.146484375L492.91640625000014 335.92578125C493.39492187500014 334.859375 494.58437500000014 333.68359375 496.78554687500014 333.68359375C498.90468750000014 333.68359375 499.98476562500014 334.77734375 499.98476562500014 336.677734375V336.759765625C499.98476562500014 337.89453125 498.78164062500014 337.8125 496.06093750000014 338.154296875C493.23085937500014 338.509765625 490.11367187500014 339.15234375 490.11367187500014 342.65234375C490.11367187500014 345.66015625 492.42421875000014 347.35546875 495.32265625000014 347.35546875ZM495.74648437500014 345.181640625C493.91445312500014 345.181640625 492.58828125000014 344.361328125 492.58828125000014 342.775390625C492.58828125000014 341.0390625 494.16054687500014 340.46484375 495.95156250000014 340.232421875C496.89492187500014 340.109375 499.57460937500014 339.8359375 499.98476562500014 339.357421875V341.4765625C499.98476562500014 343.349609375 498.46718750000014 345.181640625 495.74648437500014 345.181640625Z" fill="#657184" aria-hidden="true"/>
<path d="M513.0867187500002 347.328125C516.0808593750002 347.328125 518.5144531250002 345.701171875 519.3347656250002 342.98046875L516.9832031250002 342.310546875C516.5320312500002 343.96484375 515.1375000000002 345.126953125 513.0867187500002 345.126953125C510.03789062500016 345.126953125 508.62968750000016 342.4609375 508.62968750000016 339.453125C508.62968750000016 336.404296875 510.03789062500016 333.724609375 513.0867187500002 333.724609375C515.0964843750002 333.724609375 516.4636718750002 334.845703125 516.9148437500002 336.41796875L519.2800781250002 335.748046875C518.4460937500002 333.08203125 516.0398437500002 331.5234375 513.0867187500002 331.5234375C508.93046875000016 331.5234375 506.12773437500016 334.66796875 506.12773437500016 339.453125C506.12773437500016 344.169921875 508.93046875000016 347.328125 513.0867187500002 347.328125Z" fill="#657184" aria-hidden="true"/>
<path d="M522.9621093750002 347.0H525.4230468750002V331.71484375H522.9621093750002ZM524.2062500000002 329.212890625C525.1496093750002 329.212890625 525.9289062500002 328.48828125 525.9289062500002 327.5859375C525.9289062500002 326.68359375 525.1496093750002 325.958984375 524.2062500000002 325.958984375C523.2765625000002 325.958984375 522.4972656250002 326.68359375 522.4972656250002 327.5859375C522.4972656250002 328.48828125 523.2765625000002 329.212890625 524.2062500000002 329.212890625Z" fill="#657184" aria-hidden="true"/>
<path d="M536.0640625000002 347.328125C540.2339843750002 347.328125 543.0503906250002 344.169921875 543.0503906250002 339.453125C543.0503906250002 334.66796875 540.2339843750002 331.5234375 536.0640625000002 331.5234375C531.9078125000002 331.5234375 529.1050781250002 334.66796875 529.1050781250002 339.453125C529.1050781250002 344.169921875 531.9078125000002 347.328125 536.0640625000002 347.328125ZM536.0640625000002 345.126953125C533.0152343750002 345.126953125 531.6070312500002 342.4609375 531.6070312500002 339.453125C531.6070312500002 336.404296875 533.0152343750002 333.724609375 536.0640625000002 333.724609375C539.1539062500002 333.724609375 540.5621093750002 336.41796875 540.5621093750002 339.453125C540.5621093750002 342.4609375 539.1539062500002 345.126953125 536.0640625000002 345.126953125ZM534.9839843750002 329.71875H536.9937500000002L539.6460937500002 325.69921875H536.8980468750002Z" fill="#657184" aria-hidden="true"/>
<path d="M549.1933593750002 337.83984375C549.1933593750002 335.228515625 550.8476562500002 333.73828125 553.0488281250002 333.73828125C555.1816406250002 333.73828125 556.4941406250002 335.146484375 556.4941406250002 337.498046875V347.0H558.9550781250002V337.29296875C558.9550781250002 333.423828125 556.8769531250002 331.5234375 553.7871093750002 331.5234375C551.7363281250002 331.5234375 550.0957031250002 332.384765625 549.1113281250002 334.544921875L549.0976562500002 331.71484375H546.7324218750002V347.0H549.1933593750002Z" fill="#657184" aria-hidden="true"/>
<path d="M577.0789062500003 347.328125C579.9910156250003 347.328125 581.0164062500003 345.482421875 581.5222656250003 344.634765625H581.7957031250003V347.0H584.1746093750003V326.62890625H581.7136718750003V334.162109375H581.5222656250003C581.0164062500003 333.35546875 580.0730468750003 331.5234375 577.0925781250003 331.5234375C573.2781250000003 331.5234375 570.6121093750003 334.55859375 570.6121093750003 339.3984375C570.6121093750003 344.265625 573.2644531250003 347.328125 577.0789062500003 347.328125ZM577.4480468750003 345.126953125C574.5906250000003 345.126953125 573.1140625000003 342.583984375 573.1140625000003 339.37109375C573.1140625000003 336.19921875 574.5496093750003 333.724609375 577.4480468750003 333.724609375C580.2644531250003 333.724609375 581.7410156250003 335.994140625 581.7410156250003 339.37109375C581.7410156250003 342.775390625 580.2234375000003 345.126953125 577.4480468750003 345.126953125Z" fill="#657184" aria-hidden="true"/>
<path d="M595.0207031250003 347.328125C598.1515625000003 347.328125 600.4347656250003 345.755859375 601.1457031250003 343.4453125L598.7667968750003 342.7890625C598.1925781250003 344.34765625 596.8390625000003 345.140625 595.0343750000003 345.140625C592.3273437500003 345.140625 590.4679687500003 343.390625 590.3449218750003 340.19140625H601.3917968750003V339.166015625C601.3917968750003 333.51953125 597.9738281250003 331.5234375 594.7335937500003 331.5234375C590.5636718750003 331.5234375 587.8566406250003 334.791015625 587.8566406250003 339.48046875C587.8566406250003 344.18359375 590.5910156250003 347.328125 595.0207031250003 347.328125ZM590.3585937500003 338.11328125C590.5089843750003 335.775390625 592.1085937500003 333.7109375 594.7335937500003 333.7109375C597.2492187500003 333.7109375 598.6574218750003 335.515625 598.8898437500003 338.11328125Z" fill="#657184" aria-hidden="true"/>
<path d="M612.9941406250003 347.0H615.4550781250003V337.375C615.4550781250003 334.94140625 617.0820312500003 333.68359375 618.8730468750003 333.68359375C620.5957031250003 333.68359375 621.8671875000003 334.818359375 621.8671875000003 336.513671875V347.0H624.3281250000003V337.01953125C624.3281250000003 335.091796875 625.5859375000003 333.68359375 627.6503906250003 333.68359375C629.2910156250003 333.68359375 630.7402343750003 334.55859375 630.7402343750003 336.759765625V347.0H633.2011718750003V336.69140625C633.2011718750003 333.150390625 631.0410156250003 331.44140625 628.3886718750003 331.44140625C626.1738281250003 331.44140625 624.3007812500003 332.630859375 623.5761718750003 334.55859375C623.0292968750003 332.671875 621.6894531250003 331.44140625 619.6796875000003 331.44140625C617.8750000000003 331.44140625 616.1523437500003 332.453125 615.4003906250003 334.517578125L615.3867187500003 331.71484375H612.9941406250003Z" fill="#657184" aria-hidden="true"/>
<path d="M644.0472656250004 347.328125C647.1781250000004 347.328125 649.4613281250004 345.755859375 650.1722656250004 343.4453125L647.7933593750004 342.7890625C647.2191406250004 344.34765625 645.8656250000004 345.140625 644.0609375000004 345.140625C641.3539062500004 345.140625 639.4945312500004 343.390625 639.3714843750004 340.19140625H650.4183593750004V339.166015625C650.4183593750004 333.51953125 647.0003906250004 331.5234375 643.7601562500004 331.5234375C639.5902343750004 331.5234375 636.8832031250004 334.791015625 636.8832031250004 339.48046875C636.8832031250004 344.18359375 639.6175781250004 347.328125 644.0472656250004 347.328125ZM639.3851562500004 338.11328125C639.5355468750004 335.775390625 641.1351562500004 333.7109375 643.7601562500004 333.7109375C646.2757812500004 333.7109375 647.6839843750004 335.515625 647.9164062500004 338.11328125Z" fill="#657184" aria-hidden="true"/>
<path d="M654.0457031250004 347.0H656.5066406250004V337.4296875C656.5066406250004 335.365234375 658.1199218750004 333.875 660.3210937500004 333.875C660.9773437500004 333.875 661.6472656250004 333.984375 661.7976562500004 334.01171875V331.537109375C661.5105468750004 331.5234375 660.9089843750004 331.49609375 660.5535156250004 331.49609375C658.7351562500004 331.49609375 657.1492187500004 332.521484375 656.5886718750004 334.06640625H656.4246093750004V331.71484375H654.0457031250004Z" fill="#657184" aria-hidden="true"/>
<path d="M670.9074218750004 347.328125C673.9015625000004 347.328125 676.3351562500004 345.701171875 677.1554687500004 342.98046875L674.8039062500004 342.310546875C674.3527343750004 343.96484375 672.9582031250004 345.126953125 670.9074218750004 345.126953125C667.8585937500004 345.126953125 666.4503906250004 342.4609375 666.4503906250004 339.453125C666.4503906250004 336.404296875 667.8585937500004 333.724609375 670.9074218750004 333.724609375C672.9171875000004 333.724609375 674.2843750000004 334.845703125 674.7355468750004 336.41796875L677.1007812500004 335.748046875C676.2667968750004 333.08203125 673.8605468750004 331.5234375 670.9074218750004 331.5234375C666.7511718750004 331.5234375 663.9484375000004 334.66796875 663.9484375000004 339.453125C663.9484375000004 344.169921875 666.7511718750004 347.328125 670.9074218750004 347.328125Z" fill="#657184" aria-hidden="true"/>
<path d="M685.0621093750004 347.35546875C687.6460937500004 347.35546875 689.0816406250004 346.001953125 689.6011718750004 344.921875H689.7652343750004V347.0H692.1851562500004V336.923828125C692.1851562500004 332.15234375 688.5074218750004 331.5234375 686.4566406250004 331.5234375C684.0914062500004 331.5234375 681.4664062500004 332.37109375 680.2906250000004 335.146484375L682.6558593750004 335.92578125C683.1343750000004 334.859375 684.3238281250004 333.68359375 686.5250000000004 333.68359375C688.6441406250004 333.68359375 689.7242187500004 334.77734375 689.7242187500004 336.677734375V336.759765625C689.7242187500004 337.89453125 688.5210937500004 337.8125 685.8003906250004 338.154296875C682.9703125000004 338.509765625 679.8531250000004 339.15234375 679.8531250000004 342.65234375C679.8531250000004 345.66015625 682.1636718750004 347.35546875 685.0621093750004 347.35546875ZM685.4859375000004 345.181640625C683.6539062500004 345.181640625 682.3277343750004 344.361328125 682.3277343750004 342.775390625C682.3277343750004 341.0390625 683.9000000000004 340.46484375 685.6910156250004 340.232421875C686.6343750000004 340.109375 689.3140625000004 339.8359375 689.7242187500004 339.357421875V341.4765625C689.7242187500004 343.349609375 688.2066406250004 345.181640625 685.4859375000004 345.181640625Z" fill="#657184" aria-hidden="true"/>
<path d="M702.3339843750005 347.328125C705.2460937500005 347.328125 706.2714843750005 345.482421875 706.7773437500005 344.634765625H707.0507812500005V347.0H709.4296875000005V326.62890625H706.9687500000005V334.162109375H706.7773437500005C706.2714843750005 333.35546875 705.3281250000005 331.5234375 702.3476562500005 331.5234375C698.5332031250005 331.5234375 695.8671875000005 334.55859375 695.8671875000005 339.3984375C695.8671875000005 344.265625 698.5195312500005 347.328125 702.3339843750005 347.328125ZM702.7031250000005 345.126953125C699.8457031250005 345.126953125 698.3691406250005 342.583984375 698.3691406250005 339.37109375C698.3691406250005 336.19921875 699.8046875000005 333.724609375 702.7031250000005 333.724609375C705.5195312500005 333.724609375 706.9960937500005 335.994140625 706.9960937500005 339.37109375C706.9960937500005 342.775390625 705.4785156250005 345.126953125 702.7031250000005 345.126953125Z" fill="#657184" aria-hidden="true"/>
<path d="M720.0707031250005 347.328125C724.2406250000005 347.328125 727.0570312500005 344.169921875 727.0570312500005 339.453125C727.0570312500005 334.66796875 724.2406250000005 331.5234375 720.0707031250005 331.5234375C715.9144531250005 331.5234375 713.1117187500005 334.66796875 713.1117187500005 339.453125C713.1117187500005 344.169921875 715.9144531250005 347.328125 720.0707031250005 347.328125ZM720.0707031250005 345.126953125C717.0218750000005 345.126953125 715.6136718750005 342.4609375 715.6136718750005 339.453125C715.6136718750005 336.404296875 717.0218750000005 333.724609375 720.0707031250005 333.724609375C723.1605468750005 333.724609375 724.5687500000005 336.41796875 724.5687500000005 339.453125C724.5687500000005 342.4609375 723.1605468750005 345.126953125 720.0707031250005 345.126953125Z" fill="#657184" aria-hidden="true"/>
<path d="M730.3289062500005 351.908203125H732.2156250000005L734.3484375000005 344.15625H731.5320312500005Z" fill="#657184" aria-hidden="true"/>
<path d="M752.0757812500005 347.328125C755.6578125000005 347.328125 758.1050781250005 345.373046875 758.1050781250005 342.693359375C758.1050781250005 340.6015625 756.8062500000005 339.220703125 754.0308593750005 338.564453125L751.7203125000005 338.017578125C749.9292968750005 337.59375 749.1500000000005 336.96484375 749.1500000000005 335.830078125C749.1500000000005 334.55859375 750.5171875000005 333.615234375 752.3355468750005 333.615234375C754.3042968750005 333.615234375 755.1656250000005 334.681640625 755.5894531250005 335.775390625L757.8179687500005 335.201171875C757.1207031250005 333.0546875 755.4664062500005 331.5234375 752.3218750000005 331.5234375C749.0679687500005 331.5234375 746.6617187500005 333.35546875 746.6617187500005 335.98046875C746.6617187500005 338.126953125 747.9878906250005 339.494140625 750.7632812500005 340.150390625L753.3062500000005 340.751953125C754.8101562500005 341.107421875 755.5484375000005 341.8046875 755.5484375000005 342.857421875C755.5484375000005 344.115234375 754.1812500000005 345.16796875 752.0484375000005 345.16796875C750.2164062500005 345.16796875 748.9722656250005 344.416015625 748.5347656250005 342.734375L746.1968750000005 343.294921875C746.7437500000005 345.93359375 748.9312500000005 347.328125 752.0757812500005 347.328125Z" fill="#657184" aria-hidden="true"/>
<path d="M761.7597656250006 347.0H764.2207031250006V331.71484375H761.7597656250006ZM763.0039062500006 329.212890625C763.9472656250006 329.212890625 764.7265625000006 328.48828125 764.7265625000006 327.5859375C764.7265625000006 326.68359375 763.9472656250006 325.958984375 763.0039062500006 325.958984375C762.0742187500006 325.958984375 761.2949218750006 326.68359375 761.2949218750006 327.5859375C761.2949218750006 328.48828125 762.0742187500006 329.212890625 763.0039062500006 329.212890625Z" fill="#657184" aria-hidden="true"/>
<path d="M771.1019531250006 337.83984375C771.1019531250006 335.228515625 772.7562500000006 333.73828125 774.9574218750006 333.73828125C777.0902343750006 333.73828125 778.4027343750006 335.146484375 778.4027343750006 337.498046875V347.0H780.8636718750006V337.29296875C780.8636718750006 333.423828125 778.7855468750006 331.5234375 775.6957031250006 331.5234375C773.6449218750006 331.5234375 772.0042968750006 332.384765625 771.0199218750006 334.544921875L771.0062500000006 331.71484375H768.6410156250006V347.0H771.1019531250006Z" fill="#657184" aria-hidden="true"/>
<path d="M793.2589843750006 347.0H795.7199218750006V337.4296875C795.7199218750006 335.365234375 797.3332031250006 333.875 799.5343750000006 333.875C800.1906250000006 333.875 800.8605468750006 333.984375 801.0109375000006 334.01171875V331.537109375C800.7238281250006 331.5234375 800.1222656250006 331.49609375 799.7667968750006 331.49609375C797.9484375000006 331.49609375 796.3625000000006 332.521484375 795.8019531250006 334.06640625H795.6378906250006V331.71484375H793.2589843750006Z" fill="#657184" aria-hidden="true"/>
<path d="M810.3257812500007 347.328125C813.4566406250007 347.328125 815.7398437500007 345.755859375 816.4507812500007 343.4453125L814.0718750000007 342.7890625C813.4976562500007 344.34765625 812.1441406250007 345.140625 810.3394531250007 345.140625C807.6324218750007 345.140625 805.7730468750007 343.390625 805.6500000000007 340.19140625H816.6968750000007V339.166015625C816.6968750000007 333.51953125 813.2789062500007 331.5234375 810.0386718750007 331.5234375C805.8687500000007 331.5234375 803.1617187500007 334.791015625 803.1617187500007 339.48046875C803.1617187500007 344.18359375 805.8960937500007 347.328125 810.3257812500007 347.328125ZM805.6636718750007 338.11328125C805.8140625000007 335.775390625 807.4136718750007 333.7109375 810.0386718750007 333.7109375C812.5542968750007 333.7109375 813.9625000000007 335.515625 814.1949218750007 338.11328125Z" fill="#657184" aria-hidden="true"/>
<path d="M826.5449218750007 347.328125C829.5390625000007 347.328125 831.9726562500007 345.701171875 832.7929687500007 342.98046875L830.4414062500007 342.310546875C829.9902343750007 343.96484375 828.5957031250007 345.126953125 826.5449218750007 345.126953125C823.4960937500007 345.126953125 822.0878906250007 342.4609375 822.0878906250007 339.453125C822.0878906250007 336.404296875 823.4960937500007 333.724609375 826.5449218750007 333.724609375C828.5546875000007 333.724609375 829.9218750000007 334.845703125 830.3730468750007 336.41796875L832.7382812500007 335.748046875C831.9042968750007 333.08203125 829.4980468750007 331.5234375 826.5449218750007 331.5234375C822.3886718750007 331.5234375 819.5859375000007 334.66796875 819.5859375000007 339.453125C819.5859375000007 344.169921875 822.3886718750007 347.328125 826.5449218750007 347.328125Z" fill="#657184" aria-hidden="true"/>
<path d="M842.6410156250007 347.328125C846.8109375000007 347.328125 849.6273437500007 344.169921875 849.6273437500007 339.453125C849.6273437500007 334.66796875 846.8109375000007 331.5234375 842.6410156250007 331.5234375C838.4847656250007 331.5234375 835.6820312500007 334.66796875 835.6820312500007 339.453125C835.6820312500007 344.169921875 838.4847656250007 347.328125 842.6410156250007 347.328125ZM842.6410156250007 345.126953125C839.5921875000007 345.126953125 838.1839843750007 342.4609375 838.1839843750007 339.453125C838.1839843750007 336.404296875 839.5921875000007 333.724609375 842.6410156250007 333.724609375C845.7308593750007 333.724609375 847.1390625000007 336.41796875 847.1390625000007 339.453125C847.1390625000007 342.4609375 845.7308593750007 345.126953125 842.6410156250007 345.126953125Z" fill="#657184" aria-hidden="true"/>
<path d="M853.3093750000007 347.0H855.7703125000007V337.375C855.7703125000007 334.94140625 857.3972656250007 333.68359375 859.1882812500007 333.68359375C860.9109375000007 333.68359375 862.1824218750007 334.818359375 862.1824218750007 336.513671875V347.0H864.6433593750007V337.01953125C864.6433593750007 335.091796875 865.9011718750007 333.68359375 867.9656250000007 333.68359375C869.6062500000007 333.68359375 871.0554687500007 334.55859375 871.0554687500007 336.759765625V347.0H873.5164062500007V336.69140625C873.5164062500007 333.150390625 871.3562500000007 331.44140625 868.7039062500007 331.44140625C866.4890625000007 331.44140625 864.6160156250007 332.630859375 863.8914062500007 334.55859375C863.3445312500007 332.671875 862.0046875000007 331.44140625 859.9949218750007 331.44140625C858.1902343750007 331.44140625 856.4675781250007 332.453125 855.7156250000007 334.517578125L855.7019531250007 331.71484375H853.3093750000007Z" fill="#657184" aria-hidden="true"/>
<path d="M884.3625000000008 347.328125C887.4933593750008 347.328125 889.7765625000008 345.755859375 890.4875000000008 343.4453125L888.1085937500008 342.7890625C887.5343750000008 344.34765625 886.1808593750008 345.140625 884.3761718750008 345.140625C881.6691406250008 345.140625 879.8097656250008 343.390625 879.6867187500008 340.19140625H890.7335937500008V339.166015625C890.7335937500008 333.51953125 887.3156250000008 331.5234375 884.0753906250008 331.5234375C879.9054687500008 331.5234375 877.1984375000008 334.791015625 877.1984375000008 339.48046875C877.1984375000008 344.18359375 879.9328125000008 347.328125 884.3625000000008 347.328125ZM879.7003906250008 338.11328125C879.8507812500008 335.775390625 881.4503906250008 333.7109375 884.0753906250008 333.7109375C886.5910156250008 333.7109375 887.9992187500008 335.515625 888.2316406250008 338.11328125Z" fill="#657184" aria-hidden="true"/>
<path d="M896.8218750000008 337.83984375C896.8218750000008 335.228515625 898.4761718750008 333.73828125 900.6773437500008 333.73828125C902.8101562500008 333.73828125 904.1226562500008 335.146484375 904.1226562500008 337.498046875V347.0H906.5835937500008V337.29296875C906.5835937500008 333.423828125 904.5054687500008 331.5234375 901.4156250000008 331.5234375C899.3648437500008 331.5234375 897.7242187500008 332.384765625 896.7398437500008 334.544921875L896.7261718750008 331.71484375H894.3609375000008V347.0H896.8218750000008Z" fill="#657184" aria-hidden="true"/>
<path d="M916.7324218750008 347.328125C919.6445312500008 347.328125 920.6699218750008 345.482421875 921.1757812500008 344.634765625H921.4492187500008V347.0H923.8281250000008V326.62890625H921.3671875000008V334.162109375H921.1757812500008C920.6699218750008 333.35546875 919.7265625000008 331.5234375 916.7460937500008 331.5234375C912.9316406250008 331.5234375 910.2656250000008 334.55859375 910.2656250000008 339.3984375C910.2656250000008 344.265625 912.9179687500008 347.328125 916.7324218750008 347.328125ZM917.1015625000008 345.126953125C914.2441406250008 345.126953125 912.7675781250008 342.583984375 912.7675781250008 339.37109375C912.7675781250008 336.19921875 914.2031250000008 333.724609375 917.1015625000008 333.724609375C919.9179687500008 333.724609375 921.3945312500008 335.994140625 921.3945312500008 339.37109375C921.3945312500008 342.775390625 919.8769531250008 345.126953125 917.1015625000008 345.126953125Z" fill="#657184" aria-hidden="true"/>
<path d="M932.5277343750008 347.35546875C935.1117187500008 347.35546875 936.5472656250008 346.001953125 937.0667968750008 344.921875H937.2308593750008V347.0H939.6507812500008V336.923828125C939.6507812500008 332.15234375 935.9730468750008 331.5234375 933.9222656250008 331.5234375C931.5570312500008 331.5234375 928.9320312500008 332.37109375 927.7562500000008 335.146484375L930.1214843750008 335.92578125C930.6000000000008 334.859375 931.7894531250008 333.68359375 933.9906250000008 333.68359375C936.1097656250008 333.68359375 937.1898437500008 334.77734375 937.1898437500008 336.677734375V336.759765625C937.1898437500008 337.89453125 935.9867187500008 337.8125 933.2660156250008 338.154296875C930.4359375000008 338.509765625 927.3187500000008 339.15234375 927.3187500000008 342.65234375C927.3187500000008 345.66015625 929.6292968750008 347.35546875 932.5277343750008 347.35546875ZM932.9515625000008 345.181640625C931.1195312500008 345.181640625 929.7933593750008 344.361328125 929.7933593750008 342.775390625C929.7933593750008 341.0390625 931.3656250000008 340.46484375 933.1566406250008 340.232421875C934.1000000000008 340.109375 936.7796875000008 339.8359375 937.1898437500008 339.357421875V341.4765625C937.1898437500008 343.349609375 935.6722656250008 345.181640625 932.9515625000008 345.181640625Z" fill="#657184" aria-hidden="true"/>
<path d="M950.2917968750008 347.328125C953.2859375000008 347.328125 955.7195312500008 345.701171875 956.5398437500008 342.98046875L954.1882812500008 342.310546875C953.7371093750008 343.96484375 952.3425781250008 345.126953125 950.2917968750008 345.126953125C947.2429687500008 345.126953125 945.8347656250008 342.4609375 945.8347656250008 339.453125C945.8347656250008 336.404296875 947.2429687500008 333.724609375 950.2917968750008 333.724609375C952.3015625000008 333.724609375 953.6687500000008 334.845703125 954.1199218750008 336.41796875L956.4851562500008 335.748046875C955.6511718750008 333.08203125 953.2449218750008 331.5234375 950.2917968750008 331.5234375C946.1355468750008 331.5234375 943.3328125000008 334.66796875 943.3328125000008 339.453125C943.3328125000008 344.169921875 946.1355468750008 347.328125 950.2917968750008 347.328125Z" fill="#657184" aria-hidden="true"/>
<path d="M960.1671875000009 347.0H962.6281250000009V331.71484375H960.1671875000009ZM961.4113281250009 329.212890625C962.3546875000009 329.212890625 963.1339843750009 328.48828125 963.1339843750009 327.5859375C963.1339843750009 326.68359375 962.3546875000009 325.958984375 961.4113281250009 325.958984375C960.4816406250009 325.958984375 959.7023437500009 326.68359375 959.7023437500009 327.5859375C959.7023437500009 328.48828125 960.4816406250009 329.212890625 961.4113281250009 329.212890625Z" fill="#657184" aria-hidden="true"/>
<path d="M973.2691406250009 347.328125C977.4390625000009 347.328125 980.2554687500009 344.169921875 980.2554687500009 339.453125C980.2554687500009 334.66796875 977.4390625000009 331.5234375 973.2691406250009 331.5234375C969.1128906250009 331.5234375 966.3101562500009 334.66796875 966.3101562500009 339.453125C966.3101562500009 344.169921875 969.1128906250009 347.328125 973.2691406250009 347.328125ZM973.2691406250009 345.126953125C970.2203125000009 345.126953125 968.8121093750009 342.4609375 968.8121093750009 339.453125C968.8121093750009 336.404296875 970.2203125000009 333.724609375 973.2691406250009 333.724609375C976.3589843750009 333.724609375 977.7671875000009 336.41796875 977.7671875000009 339.453125C977.7671875000009 342.4609375 976.3589843750009 345.126953125 973.2691406250009 345.126953125Z" fill="#657184" aria-hidden="true"/>
<path d="M986.3984375000009 337.83984375C986.3984375000009 335.228515625 988.0527343750009 333.73828125 990.2539062500009 333.73828125C992.3867187500009 333.73828125 993.6992187500009 335.146484375 993.6992187500009 337.498046875V347.0H996.1601562500009V337.29296875C996.1601562500009 333.423828125 994.0820312500009 331.5234375 990.9921875000009 331.5234375C988.9414062500009 331.5234375 987.3007812500009 332.384765625 986.3164062500009 334.544921875L986.3027343750009 331.71484375H983.9375000000009V347.0H986.3984375000009Z" fill="#657184" aria-hidden="true"/>
<path d="M1007.0062500000009 347.328125C1010.1371093750009 347.328125 1012.4203125000009 345.755859375 1013.1312500000009 343.4453125L1010.7523437500009 342.7890625C1010.1781250000009 344.34765625 1008.8246093750009 345.140625 1007.0199218750009 345.140625C1004.3128906250009 345.140625 1002.4535156250009 343.390625 1002.3304687500009 340.19140625H1013.3773437500009V339.166015625C1013.3773437500009 333.51953125 1009.9593750000009 331.5234375 1006.7191406250009 331.5234375C1002.5492187500009 331.5234375 999.8421875000009 334.791015625 999.8421875000009 339.48046875C999.8421875000009 344.18359375 1002.5765625000009 347.328125 1007.0062500000009 347.328125ZM1002.3441406250009 338.11328125C1002.4945312500009 335.775390625 1004.0941406250009 333.7109375 1006.7191406250009 333.7109375C1009.2347656250009 333.7109375 1010.6429687500009 335.515625 1010.8753906250009 338.11328125Z" fill="#657184" aria-hidden="true"/>
<path d="M1022.200000000001 347.328125C1025.782031250001 347.328125 1028.229296875001 345.373046875 1028.229296875001 342.693359375C1028.229296875001 340.6015625 1026.930468750001 339.220703125 1024.155078125001 338.564453125L1021.844531250001 338.017578125C1020.053515625001 337.59375 1019.274218750001 336.96484375 1019.274218750001 335.830078125C1019.274218750001 334.55859375 1020.641406250001 333.615234375 1022.459765625001 333.615234375C1024.428515625001 333.615234375 1025.289843750001 334.681640625 1025.713671875001 335.775390625L1027.942187500001 335.201171875C1027.244921875001 333.0546875 1025.590625000001 331.5234375 1022.446093750001 331.5234375C1019.192187500001 331.5234375 1016.785937500001 333.35546875 1016.785937500001 335.98046875C1016.785937500001 338.126953125 1018.112109375001 339.494140625 1020.887500000001 340.150390625L1023.430468750001 340.751953125C1024.934375000001 341.107421875 1025.672656250001 341.8046875 1025.672656250001 342.857421875C1025.672656250001 344.115234375 1024.305468750001 345.16796875 1022.172656250001 345.16796875C1020.340625000001 345.16796875 1019.096484375001 344.416015625 1018.658984375001 342.734375L1016.321093750001 343.294921875C1016.867968750001 345.93359375 1019.055468750001 347.328125 1022.200000000001 347.328125Z" fill="#657184" aria-hidden="true"/>
<path d="M1045.5875000000008 347.328125C1048.4996093750008 347.328125 1049.5250000000008 345.482421875 1050.0308593750008 344.634765625H1050.3042968750008V347.0H1052.6832031250008V326.62890625H1050.2222656250008V334.162109375H1050.0308593750008C1049.5250000000008 333.35546875 1048.5816406250008 331.5234375 1045.6011718750008 331.5234375C1041.7867187500008 331.5234375 1039.1207031250008 334.55859375 1039.1207031250008 339.3984375C1039.1207031250008 344.265625 1041.7730468750008 347.328125 1045.5875000000008 347.328125ZM1045.9566406250008 345.126953125C1043.0992187500008 345.126953125 1041.6226562500008 342.583984375 1041.6226562500008 339.37109375C1041.6226562500008 336.19921875 1043.0582031250008 333.724609375 1045.9566406250008 333.724609375C1048.7730468750008 333.724609375 1050.2496093750008 335.994140625 1050.2496093750008 339.37109375C1050.2496093750008 342.775390625 1048.7320312500008 345.126953125 1045.9566406250008 345.126953125Z" fill="#657184" aria-hidden="true"/>
<path d="M1063.5292968750007 347.328125C1066.6601562500007 347.328125 1068.9433593750007 345.755859375 1069.6542968750007 343.4453125L1067.2753906250007 342.7890625C1066.7011718750007 344.34765625 1065.3476562500007 345.140625 1063.5429687500007 345.140625C1060.8359375000007 345.140625 1058.9765625000007 343.390625 1058.8535156250007 340.19140625H1069.9003906250007V339.166015625C1069.9003906250007 333.51953125 1066.4824218750007 331.5234375 1063.2421875000007 331.5234375C1059.0722656250007 331.5234375 1056.3652343750007 334.791015625 1056.3652343750007 339.48046875C1056.3652343750007 344.18359375 1059.0996093750007 347.328125 1063.5292968750007 347.328125ZM1058.8671875000007 338.11328125C1059.0175781250007 335.775390625 1060.6171875000007 333.7109375 1063.2421875000007 333.7109375C1065.7578125000007 333.7109375 1067.1660156250007 335.515625 1067.3984375000007 338.11328125Z" fill="#657184" aria-hidden="true"/>
<path d="M1081.5027343750005 347.0H1083.9636718750005V331.71484375H1081.5027343750005ZM1082.7468750000005 329.212890625C1083.6902343750005 329.212890625 1084.4695312500005 328.48828125 1084.4695312500005 327.5859375C1084.4695312500005 326.68359375 1083.6902343750005 325.958984375 1082.7468750000005 325.958984375C1081.8171875000005 325.958984375 1081.0378906250005 326.68359375 1081.0378906250005 327.5859375C1081.0378906250005 328.48828125 1081.8171875000005 329.212890625 1082.7468750000005 329.212890625Z" fill="#657184" aria-hidden="true"/>
<path d="M1090.8449218750004 337.83984375C1090.8449218750004 335.228515625 1092.4992187500004 333.73828125 1094.7003906250004 333.73828125C1096.8332031250004 333.73828125 1098.1457031250004 335.146484375 1098.1457031250004 337.498046875V347.0H1100.6066406250004V337.29296875C1100.6066406250004 333.423828125 1098.5285156250004 331.5234375 1095.4386718750004 331.5234375C1093.3878906250004 331.5234375 1091.7472656250004 332.384765625 1090.7628906250004 334.544921875L1090.7492187500004 331.71484375H1088.3839843750004V347.0H1090.8449218750004Z" fill="#657184" aria-hidden="true"/>
<path d="M1109.4429687500003 347.0H1112.0269531250003L1117.8648437500003 331.71484375H1115.1714843750003L1111.9175781250003 340.779296875C1111.4390625000003 342.10546875 1111.0835937500003 343.4453125 1110.7417968750003 344.716796875C1110.3863281250003 343.4453125 1110.0308593750003 342.10546875 1109.5523437500003 340.779296875L1106.2984375000003 331.71484375H1103.6050781250003Z" fill="#657184" aria-hidden="true"/>
<path d="M1127.2890625000002 347.328125C1130.4199218750002 347.328125 1132.7031250000002 345.755859375 1133.4140625000002 343.4453125L1131.0351562500002 342.7890625C1130.4609375000002 344.34765625 1129.1074218750002 345.140625 1127.3027343750002 345.140625C1124.5957031250002 345.140625 1122.7363281250002 343.390625 1122.6132812500002 340.19140625H1133.6601562500002V339.166015625C1133.6601562500002 333.51953125 1130.2421875000002 331.5234375 1127.0019531250002 331.5234375C1122.8320312500002 331.5234375 1120.1250000000002 334.791015625 1120.1250000000002 339.48046875C1120.1250000000002 344.18359375 1122.8593750000002 347.328125 1127.2890625000002 347.328125ZM1122.6269531250002 338.11328125C1122.7773437500002 335.775390625 1124.3769531250002 333.7109375 1127.0019531250002 333.7109375C1129.5175781250002 333.7109375 1130.9257812500002 335.515625 1131.1582031250002 338.11328125Z" fill="#657184" aria-hidden="true"/>
<path d="M1137.2875000000001 347.0H1139.7484375000001V337.4296875C1139.7484375000001 335.365234375 1141.3617187500001 333.875 1143.5628906250001 333.875C1144.2191406250001 333.875 1144.8890625000001 333.984375 1145.0394531250001 334.01171875V331.537109375C1144.7523437500001 331.5234375 1144.1507812500001 331.49609375 1143.7953125000001 331.49609375C1141.9769531250001 331.49609375 1140.3910156250001 332.521484375 1139.8304687500001 334.06640625H1139.6664062500001V331.71484375H1137.2875000000001Z" fill="#657184" aria-hidden="true"/>
<path d="M1153.123828125 347.328125C1156.705859375 347.328125 1159.153125 345.373046875 1159.153125 342.693359375C1159.153125 340.6015625 1157.854296875 339.220703125 1155.07890625 338.564453125L1152.768359375 338.017578125C1150.97734375 337.59375 1150.198046875 336.96484375 1150.198046875 335.830078125C1150.198046875 334.55859375 1151.565234375 333.615234375 1153.38359375 333.615234375C1155.35234375 333.615234375 1156.213671875 334.681640625 1156.6375 335.775390625L1158.866015625 335.201171875C1158.16875 333.0546875 1156.514453125 331.5234375 1153.369921875 331.5234375C1150.116015625 331.5234375 1147.709765625 333.35546875 1147.709765625 335.98046875C1147.709765625 338.126953125 1149.0359375 339.494140625 1151.811328125 340.150390625L1154.354296875 340.751953125C1155.858203125 341.107421875 1156.596484375 341.8046875 1156.596484375 342.857421875C1156.596484375 344.115234375 1155.229296875 345.16796875 1153.096484375 345.16796875C1151.264453125 345.16796875 1150.0203125 344.416015625 1149.5828125 342.734375L1147.244921875 343.294921875C1147.791796875 345.93359375 1149.979296875 347.328125 1153.123828125 347.328125Z" fill="#657184" aria-hidden="true"/>
<path d="M1162.8078125 347.0H1165.26875V331.71484375H1162.8078125ZM1164.051953125 329.212890625C1164.9953125 329.212890625 1165.774609375 328.48828125 1165.774609375 327.5859375C1165.774609375 326.68359375 1164.9953125 325.958984375 1164.051953125 325.958984375C1163.122265625 325.958984375 1162.34296875 326.68359375 1162.34296875 327.5859375C1162.34296875 328.48828125 1163.122265625 329.212890625 1164.051953125 329.212890625Z" fill="#657184" aria-hidden="true"/>
<path d="M1175.9097656249999 347.328125C1180.0796874999999 347.328125 1182.8960937499999 344.169921875 1182.8960937499999 339.453125C1182.8960937499999 334.66796875 1180.0796874999999 331.5234375 1175.9097656249999 331.5234375C1171.7535156249999 331.5234375 1168.9507812499999 334.66796875 1168.9507812499999 339.453125C1168.9507812499999 344.169921875 1171.7535156249999 347.328125 1175.9097656249999 347.328125ZM1175.9097656249999 345.126953125C1172.8609374999999 345.126953125 1171.4527343749999 342.4609375 1171.4527343749999 339.453125C1171.4527343749999 336.404296875 1172.8609374999999 333.724609375 1175.9097656249999 333.724609375C1178.9996093749999 333.724609375 1180.4078124999999 336.41796875 1180.4078124999999 339.453125C1180.4078124999999 342.4609375 1178.9996093749999 345.126953125 1175.9097656249999 345.126953125ZM1174.8296874999999 329.71875H1176.8394531249999L1179.4917968749999 325.69921875H1176.7437499999999Z" fill="#657184" aria-hidden="true"/>
<path d="M1189.0390624999998 337.83984375C1189.0390624999998 335.228515625 1190.6933593749998 333.73828125 1192.8945312499998 333.73828125C1195.0273437499998 333.73828125 1196.3398437499998 335.146484375 1196.3398437499998 337.498046875V347.0H1198.8007812499998V337.29296875C1198.8007812499998 333.423828125 1196.7226562499998 331.5234375 1193.6328124999998 331.5234375C1191.5820312499998 331.5234375 1189.9414062499998 332.384765625 1188.9570312499998 334.544921875L1188.9433593749998 331.71484375H1186.5781249999998V347.0H1189.0390624999998Z" fill="#657184" aria-hidden="true"/>
  </g>
</svg>